# xmcd CD database file
#
# Track frame offsets:
#	182
#	16465
#	28802
#	45047
#	56225
#	66687
#	85412
#	97492
#	109515
#	129357
#	147502
#	162612
#	179817
#	191202
#	204050
#	217975
#	245387
#
# Disc length: 3402 seconds
#
# Revision: 2
# Processed by: cddbd v1.4b41PL1 Copyright (c) Steve Scherf et al.
# Submitted via: Feurio! 1.50.2ß - http://www.feurio.com
#
DISCID=050d4811
DTITLE=Nina Simone - 16 Greatest Hits
DYEAR=1900
DGENRE=
TTITLE0=My Baby Just Cares For Me
TTITLE1=Don't Let Me Be Misunderstood
TTITLE2=Ne Me Quitte Pas
TTITLE3=He Needs Me
TTITLE4=The Laziest Girl In Town
TTITLE5=I Love You Porgy
TTITLE6=Trouble In Mind
TTITLE7=Nobody Knows When You Down And Out
TTITLE8=Four Women
TTITLE9=Moods Indigo
TTITLE10=Love Me or Leave Me
TTITLE11=The House Of The Rising Sun
TTITLE12=It Don't Mean A Thing If It Ain't Got That Swing
TTITLE13=Do Nothing Till You Hear From Me
TTITLE14=Central Park Blues
TTITLE15=Gin House Blues
TTITLE16=Ain't Got No- I Got Life
EXTD=
EXTT0=
EXTT1=
EXTT2=
EXTT3=
EXTT4=
EXTT5=
EXTT6=
EXTT7=
EXTT8=
EXTT9=
EXTT10=
EXTT11=
EXTT12=
EXTT13=
EXTT14=
EXTT15=
EXTT16=
PLAYORDER=
